HIERARCHY
ROOT Hips
{
	OFFSET 0.000000 0.000000 0.000000 
	CHANNELS 6 Xposition Yposition Zposition Zrotation Xrotation Yrotation
	JOINT Spine
	{
		OFFSET -0.000000 8.061080 0.000000 
		CHANNELS 3 Zrotation Xrotation Yrotation
		JOINT Spine1
		{
			OFFSET -0.000000 20.532677 0.000000 
			CHANNELS 3 Zrotation Xrotation Yrotation
			JOINT Neck
			{
				OFFSET -0.000000 22.498795 0.000000 
				CHANNELS 3 Zrotation Xrotation Yrotation
				JOINT Head
				{
					OFFSET -0.000000 15.237408 1.966117 
					CHANNELS 3 Zrotation Xrotation Yrotation
					End Site
					{
						OFFSET -0.000000 19.661171 0.000000 
					}
				}
			}
			JOINT LeftShoulder
			{
				OFFSET 3.894675 16.042269 -0.398189 
				CHANNELS 3 Zrotation Xrotation Yrotation
				JOINT LeftArm
				{
					OFFSET 19.709621 0.000000 0.000000 
					CHANNELS 3 Zrotation Xrotation Yrotation
					JOINT LeftForeArm
					{
						OFFSET 25.566900 0.000000 0.000000 
						CHANNELS 3 Zrotation Xrotation Yrotation
						JOINT LeftHand
						{
							OFFSET 25.401896 0.000000 0.000000 
							CHANNELS 3 Zrotation Xrotation Yrotation
							End Site
							{
								OFFSET 14.745877 0.000000 0.000000 
							}
						}
					}
				}
			}
			JOINT RightShoulder
			{
				OFFSET -3.930777 16.042269 -0.398189 
				CHANNELS 3 Zrotation Xrotation Yrotation
				JOINT RightArm
				{
					OFFSET -19.709621 0.000000 0.000000 
					CHANNELS 3 Zrotation Xrotation Yrotation
					JOINT RightForeArm
					{
						OFFSET -25.566900 0.000000 0.000000 
						CHANNELS 3 Zrotation Xrotation Yrotation
						JOINT RightHand
						{
							OFFSET -25.401896 0.000000 0.000000 
							CHANNELS 3 Zrotation Xrotation Yrotation
							End Site
							{
								OFFSET -14.745877 0.000000 0.000000 
							}
						}
					}
				}
			}
		}
	}
	JOINT LeftUpLeg
	{
		OFFSET 9.830585 0.000000 0.000000 
		CHANNELS 3 Zrotation Xrotation Yrotation
		JOINT LeftLeg
		{
			OFFSET -0.000000 -46.474842 0.000000 
			CHANNELS 3 Zrotation Xrotation Yrotation
			JOINT LeftFoot
			{
				OFFSET -0.000000 -30.290520 0.000000 
				CHANNELS 3 Zrotation Xrotation Yrotation
				JOINT LeftToeBase
				{
					OFFSET -0.000000 -6.389880 14.745877 
					CHANNELS 3 Zrotation Xrotation Yrotation
					End Site
					{
						OFFSET -0.000000 0.000000 3.932234 
					}
				}
			}
		}
	}
	JOINT RightUpLeg
	{
		OFFSET -9.830585 0.000000 0.000000 
		CHANNELS 3 Zrotation Xrotation Yrotation
		JOINT RightLeg
		{
			OFFSET -0.000000 -46.474842 0.000000 
			CHANNELS 3 Zrotation Xrotation Yrotation
			JOINT RightFoot
			{
				OFFSET -0.000000 -30.290520 0.000000 
				CHANNELS 3 Zrotation Xrotation Yrotation
				JOINT RightToeBase
				{
					OFFSET -0.000000 -6.389880 14.745877 
					CHANNELS 3 Zrotation Xrotation Yrotation
					End Site
					{
						OFFSET -0.000000 0.000000 3.932234 
					}
				}
			}
		}
	}
}
MOTION
Frames: 6
Frame Time: 0.010000
-2.418910 84.506218 15.645120 2.339099 7.706008 -26.836271 1.462211 -2.824309 -0.282942 2.632717 -2.382901 -0.050673 1.634949 5.264760 -1.411256 5.769168 -2.063423 -1.806777 3.938751 10.586664 -0.483511 -73.322975 26.320023 -22.938330 -11.602516 1.225667 -4.427718 6.854911 1.118828 5.723945 -8.333372 9.984170 -8.905043 51.620316 54.277706 39.532494 6.698065 -8.893389 6.525633 -2.555753 -9.395667 5.663127 11.843426 -15.764524 0.193331 0.419632 3.936226 0.774768 -9.099183 5.833897 -3.380476 0.000000 0.000000 0.000000 -9.616847 -6.775480 17.486385 10.894214 13.450267 -8.325110 -2.929747 -8.365560 -6.257688 0.000000 0.000000 0.000000 
-2.136402 84.523666 16.057598 2.421839 7.856316 -27.639332 1.404052 -2.770968 -0.274007 2.534112 -2.464049 -0.047619 1.582697 5.370658 -1.724910 6.199243 -2.340820 -2.171922 3.989594 10.408216 -0.601103 -73.236580 26.376120 -22.827559 -11.571680 1.180028 -4.498986 6.897129 1.069000 5.719874 -8.317198 9.995609 -8.895268 51.604530 54.216167 39.645432 6.636607 -8.945521 6.508296 -2.513055 -9.442981 5.746135 11.811092 -15.613022 0.520775 0.411675 3.964100 0.594038 -8.624779 5.401187 -3.536246 0.000000 0.000000 0.000000 -9.776394 -6.978242 17.432331 10.799118 13.460239 -8.428328 -2.786530 -8.077817 -5.994828 0.000000 0.000000 0.000000 
-1.852912 84.545021 16.465836 2.506327 8.006186 -28.455111 1.346398 -2.719000 -0.265833 2.436792 -2.547320 -0.044423 1.543245 5.487180 -2.032211 6.599031 -2.600936 -2.523714 4.056274 10.378762 -0.620460 -73.055695 26.373650 -22.958532 -11.606865 1.174043 -4.519981 6.951609 1.062489 5.725529 -8.302139 10.004305 -8.885344 51.581337 54.155834 39.773052 6.570591 -9.000717 6.494246 -2.470993 -9.493291 5.830040 11.776304 -15.454116 0.854182 0.401212 3.981409 0.430167 -8.152429 4.986343 -3.669029 0.000000 0.000000 0.000000 -9.930311 -7.189991 17.363012 10.702338 13.462518 -8.542479 -2.648273 -7.759264 -5.731582 0.000000 0.000000 0.000000 
-1.569119 84.570305 16.869164 2.592170 8.155471 -29.284842 1.289551 -2.668776 -0.257476 2.341688 -2.632044 -0.041137 1.515251 5.612064 -2.331584 6.968194 -2.840842 -2.861340 4.123354 10.342856 -0.643057 -72.868568 26.367563 -23.078279 -11.639117 1.164752 -4.542929 7.007769 1.052823 5.732914 -8.288247 10.010029 -8.874978 51.549885 54.097801 39.915920 6.499614 -9.058825 6.483993 -2.429400 -9.546439 5.914453 11.740327 -15.287191 1.192598 0.387700 3.986184 0.285829 -7.683002 4.592035 -3.778769 0.000000 0.000000 0.000000 -10.077295 -7.410569 17.278221 10.603615 13.456819 -8.666042 -2.516005 -7.409438 -5.469090 0.000000 0.000000 0.000000 
-1.285694 84.599472 17.266975 2.679032 8.303870 -30.129749 1.233733 -2.620412 -0.248123 2.249626 -2.717709 -0.037647 1.497495 5.743431 -2.621661 7.306423 -3.058629 -3.184171 4.191195 10.304893 -0.666069 -72.673698 26.356392 -23.192678 -11.669824 1.152676 -4.565896 7.065802 1.040728 5.741762 -8.275830 10.012754 -8.863979 51.509808 54.042519 40.074219 6.424050 -9.119198 6.478424 -2.388455 -9.601836 5.998970 11.704118 -15.111451 1.535140 0.371029 3.976588 0.163427 -7.217737 4.220307 -3.865689 0.000000 0.000000 0.000000 -10.216246 -7.639604 17.177761 10.502872 13.442944 -8.797362 -2.390817 -7.028399 -5.208688 0.000000 0.000000 0.000000 
-1.003309 84.632385 17.658710 2.766584 8.451183 -30.990978 1.179155 -2.574230 -0.236816 2.161449 -2.803725 -0.033978 1.488433 5.879309 -2.901351 7.614104 -3.252197 -3.491803 4.258975 10.261160 -0.692187 -72.474121 26.340885 -23.293816 -11.697138 1.136669 -4.590254 7.125529 1.024683 5.751572 -8.264851 10.012432 -8.852174 51.460529 53.990910 40.248093 6.343699 -9.181400 6.478147 -2.348065 -9.659067 6.083336 11.668765 -14.926340 1.881188 0.350811 3.951282 0.065109 -6.757434 3.872602 -3.930416 0.000000 0.000000 0.000000 -10.345925 -7.876818 17.061232 10.399701 13.421051 -8.934918 -2.273470 -6.616701 -4.951345 0.000000 0.000000 0.000000 
